<svg xmlns="http://www.w3.org/2000/svg" width="144" height="144" viewBox="0 0 144 144"><path fill="#273AAD" d="M144 132c0 6.627-5.373 12-12 12h-120c-6.627 0-12-5.373-12-12v-120c0-6.627 5.373-12 12-12h120c6.627 0 12 5.373 12 12v120z"/><linearGradient id="a" gradientUnits="userSpaceOnUse" x1="71.999" y1="4" x2="71.999" y2="94.309"><stop offset="0" stop-color="#fff"/><stop offset=".096" stop-color="#F7F7FC"/><stop offset=".249" stop-color="#DFE2F3"/><stop offset=".439" stop-color="#BAC0E5"/><stop offset=".659" stop-color="#8690D1"/><stop offset=".903" stop-color="#4454B8"/><stop offset="1" stop-color="#273AAD"/></linearGradient><path opacity=".5" fill="url(#a)" d="M4.998 94.309v-82.099c0-4.534 5-8.21 11.167-8.21h111.667c6.167 0 11.167 3.676 11.167 8.21v82.099c-64.001-7.809-134.001 0-134.001 0z"/><path fill="#FDB200" d="M63.808 21.814h23.408v69.391c0 10.187-3.346 18.268-10.037 24.242-6.692 5.974-15.062 8.96-25.11 8.96-10.975 0-19.647-2.639-26.013-7.918-6.367-5.279-9.436-13.082-9.203-23.408l.139-.417h22.922c0 4.909 1.135 8.416 3.404 10.523 2.268 2.107 5.185 3.16 8.752 3.16 3.195 0 5.949-1.32 8.266-3.959 2.315-2.639 3.473-6.367 3.473-11.183l-.001-69.391z"/><path fill="#fff" d="M119.209 51.099h-20.075v12.762h23.66v9.141h-35.577v-51.188h35.648v9.141h-23.73v11.004h20.074v9.14z"/></svg>