<?xml version="1.0" encoding="utf-8"?>
<!-- Generator: Adobe Illustrator 17.0.2, SVG Export Plug-In . SVG Version: 6.00 Build 0)  -->
<!DOCTYPE svg PUBLIC "-//W3C//DTD SVG 1.1//EN" "http://www.w3.org/Graphics/SVG/1.1/DTD/svg11.dtd">
<svg version="1.1" id="Layer_1" xmlns="http://www.w3.org/2000/svg" xmlns:xlink="http://www.w3.org/1999/xlink" x="0px" y="0px"
	 width="144px" height="144px" viewBox="0 0 144 144" enable-background="new 0 0 144 144" xml:space="preserve">
<rect fill="#273AAD" width="144" height="144"/>
<path fill="#FDB200" d="M63.808,21.814h23.408v69.391c0,10.187-3.346,18.268-10.037,24.242c-6.692,5.974-15.062,8.96-25.11,8.96
	c-10.975,0-19.647-2.639-26.013-7.918c-6.367-5.279-9.436-13.082-9.203-23.408l0.139-0.417h22.922c0,4.909,1.135,8.416,3.404,10.523
	c2.268,2.107,5.185,3.16,8.752,3.16c3.195,0,5.949-1.32,8.266-3.959c2.315-2.639,3.473-6.367,3.473-11.183V21.814z"/>
<path fill="#FFFFFF" d="M119.209,51.099H99.134v12.762h23.66v9.141H87.217V21.814h35.648v9.141h-23.73v11.004h20.074V51.099z"/>
</svg>
