<?xml version="1.0" encoding="utf-8"?>
<!-- Generator: Adobe Illustrator 17.0.2, SVG Export Plug-In . SVG Version: 6.00 Build 0)  -->
<!DOCTYPE svg PUBLIC "-//W3C//DTD SVG 1.1//EN" "http://www.w3.org/Graphics/SVG/1.1/DTD/svg11.dtd">
<svg version="1.1" id="Layer_1" xmlns="http://www.w3.org/2000/svg" xmlns:xlink="http://www.w3.org/1999/xlink" x="0px" y="0px"
	 width="77.667px" height="77.667px" viewBox="0 0 77.667 77.667" enable-background="new 0 0 77.667 77.667" xml:space="preserve">
<path id="Twitter" fill="#273AAD" d="M60.932,58.429H41.708c-2.673,0-4.945-0.935-6.812-2.813c-1.875-1.88-2.803-4.153-2.803-6.838
	v-6.842h27.393c2.471,0,4.598-0.889,6.366-2.652c1.767-1.778,2.654-3.903,2.654-6.377c0-2.482-0.887-4.605-2.659-6.377
	c-1.774-1.768-3.907-2.654-6.389-2.654H32.093V9.742c0-2.675-0.954-4.965-2.848-6.873C27.358,0.959,25.078,0,22.427,0
	c-2.724,0-5.043,0.944-6.929,2.813c-1.892,1.875-2.837,4.185-2.837,6.937v39.033c0,8.029,2.837,14.887,8.516,20.58
	c5.683,5.703,12.533,8.547,20.542,8.547h19.219c2.669,0,4.959-0.959,6.864-2.87c1.907-1.902,2.858-4.197,2.858-6.869
	c0-2.673-0.951-4.964-2.858-6.875C65.897,59.391,63.603,58.429,60.932,58.429z"/>
</svg>
