<svg xmlns="http://www.w3.org/2000/svg" width="77.667" height="77.667" viewBox="0 0 77.667 77.667"><path fill="#273AAD" d="M60.932 58.429h-19.224c-2.673 0-4.945-.935-6.812-2.813-1.875-1.88-2.803-4.153-2.803-6.838v-6.842h27.393c2.471 0 4.598-.889 6.366-2.652 1.767-1.778 2.654-3.903 2.654-6.377 0-2.482-.887-4.605-2.659-6.377-1.774-1.768-3.907-2.654-6.389-2.654h-27.365v-14.134c0-2.675-.954-4.965-2.848-6.873-1.887-1.91-4.167-2.869-6.818-2.869-2.724 0-5.043.944-6.929 2.813-1.892 1.875-2.837 4.185-2.837 6.937v39.033c0 8.029 2.837 14.887 8.516 20.58 5.683 5.703 12.533 8.547 20.542 8.547h19.219c2.669 0 4.959-.959 6.864-2.87 1.907-1.902 2.858-4.197 2.858-6.869 0-2.673-.951-4.964-2.858-6.875-1.905-1.905-4.199-2.867-6.87-2.867z"/></svg>